# AST/ASF file generated using VICON BodyLanguage
# -----------------------------------------------
:version 1.10
:name VICON
:units
  mass 1.0
  length 0.45
  angle deg
:documentation
   .ast/.asf automatically generated from VICON data using
   VICON BodyBuilder and BodyLanguage model FoxedUp or BRILLIANT.MOD
:root
   order TX TY TZ RX RY RZ
   axis XYZ
   position 0 0 0  
   orientation 0 0 0 
:bonedata
  begin
     id 1 
     name lhipjoint
     direction 0.440178 -0.822639 0.359871 
     length 2.53113 
     axis 0 0 0  XYZ
  end
  begin
     id 2 
     name lfemur
     direction 0.34202 -0.939693 0  
     length 7.88132  
     axis 0 0 20  XYZ
    dof rx ry rz
    limits (-160.0 20.0)
           (-70.0 70.0)
           (-60.0 70.0)
  end
  begin
     id 3 
     name ltibia
     direction 0.34202 -0.939693 0   
     length 8.43783   
     axis 0 0 20   XYZ
    dof rx
    limits (-10.0 170.0)
  end
  begin
     id 4 
     name lfoot
     direction 0.0886351 -0.243523 0.965837   
     length 2.63414   
     axis -90 7.62852e-016 20   XYZ
    dof rx rz
    limits (-45.0 90.0)
           (-70.0 20.0)
  end
  begin
     id 5 
     name ltoes
     direction 1.53703e-011 -4.21717e-011 1   
     length 1.31427   
     axis -90 7.62852e-016 20   XYZ
    dof rx
    limits (-90.0 20.0)
  end
  begin
     id 6 
     name rhipjoint
     direction -0.399779 -0.839773 0.367367   
     length 2.47948  
     axis 0 0 0  XYZ 
  end
  begin
     id 7 
     name rfemur
     direction -0.34202 -0.939693 0   
     length 7.74806   
     axis 0 0 -20   XYZ
    dof rx ry rz
    limits (-160.0 20.0)
           (-70.0 70.0)
           (-70.0 60.0)
  end
  begin
     id 8 
     name rtibia
     direction -0.34202 -0.939693 0   
     length 8.74432   
     axis 0 0 -20   XYZ
    dof rx
    limits (-10.0 170.0)
 end
 begin
     id 9 
     name rfoot
     direction -0.108514 -0.298139 0.948334   
     length 2.66102  
     axis -90 -7.62852e-016 -20   XYZ
    dof rx rz
    limits (-45.0 90.0)
           (-20.0 70.0)
  end
  begin
     id 10 
     name rtoes
     direction -1.53392e-011 -4.22077e-011 1   
     length 1.31983   
     axis -90 -7.62852e-016 -20   XYZ
    dof rx
    limits (-90.0 20.0)
  end
  begin
     id 11 
     name lowerback
     direction 0.0113257 0.999866 0.0118602   
     length 2.58694   
     axis 0 0 0   XYZ
    dof rx ry rz
    limits (-20.0 45.0)
           (-30.0 30.0)
           (-30.0 30.0)
  end
  begin
     id 12 
     name upperback
     direction -0.0164747 0.995193 -0.0965375   
     length 2.52368   
     axis 0 0 0   XYZ
    dof rx ry rz
    limits (-20.0 45.0)
           (-30.0 30.0)
           (-30.0 30.0)
  end
  begin
     id 13 
     name thorax
     direction -0.0194301 0.99433 -0.104552   
     length 2.56099   
     axis 0 0 0   XYZ
    dof rx ry rz
    limits (-20.0 45.0)
           (-30.0 30.0)
           (-30.0 30.0)
  end
  begin
     id 14 
     name lowerneck
     direction 0.0148543 0.995587 -0.092657   
     length 1.71582   
     axis 0 0 0   XYZ
    dof rx ry rz
    limits (-20.0 45.0)
           (-30.0 30.0)
           (-30.0 30.0)
  end
  begin
     id 15 
     name upperneck
     direction -0.0135467 0.993656 -0.111639   
     length 1.68937   
     axis 0 0 0   XYZ
    dof rx ry rz
    limits (-20.0 45.0)
           (-30.0 30.0)
           (-30.0 30.0)
  end
  begin
     id 16
     name head
     direction -0.00615349 0.999547 -0.029448  
     length 1.7462  
     axis 0 0 0   XYZ
    dof rx ry rz
    limits (-20.0 45.0)
           (-30.0 30.0)
           (-30.0 30.0)
  end
  begin
     id 17 
     name lclavicle
     direction 0.988267 0.149885 0.0293713  
     length 4.47222  
     axis 0 0 0   XYZ
    dof ry rz
    limits (-20.0 10.0)
           (0.0 20.0)
  end
  begin
     id 18 
     name lhumerus
     direction 1 -4.48986e-011 -1.14833e-027   
     length 5.37148   
     axis 180 -30 -90   XYZ
    dof rx ry rz
    limits (-60.0 90.0)
           (-90.0 90.0)
           (-90.0 90.0)
  end
  begin
     id 19
     name lradius
     direction 0.999998 0.00170963 -0.000987055   
     length 3.94212   
     axis 180 -30 -90   XYZ
    dof rx
    limits (-10.0 170.0)
  end
  begin
     id 20
     name lwrist
     direction 0.999998 7.53149e-005 -0.00194706   
     length 1.97106   
     axis 4.65056e-015 90 90   XYZ
    dof ry
    limits (-180.0 0.0)
 end
  begin
     id 21 
     name lhand
     direction 1 -4.48973e-011 -1.31746e-026   
     length 1.17917   
     axis 8.4065e-015 90 90   XYZ
    dof rx rz
    limits (-90.0 90.0)
           (-45.0 45.0)
  end
  begin
     id 22 
     name lfingers
     direction 1 -4.49107e-011 -2.63492e-026   
     length 0.950679   
     axis 1.6813e-014 90 90   XYZ
    dof rx
    limits (0.0 90.0)
  end
  begin
     id 23
     name lthumb
     direction 0.707107 -6.35048e-011 0.707107   
     length 1.36499   
     axis -90 45 2.85299e-015   XYZ
    dof rx rz
    limits (-45.0 45.0)
           (-45.0 45.0)
  end
  begin
     id 24 
     name rclavicle
     direction -0.996699 0.0642895 -0.0495725   
     length 4.62611  
     axis 0 0 0   XYZ 
    dof ry rz
    limits (-10.0 20.0)
           (-20.0 0.0)
  end
  begin
     id 25 
     name rhumerus
     direction -1 -4.48919e-011 -2.41059e-027  
     length 5.4981   
     axis 180 30 90   XYZ
    dof rx ry rz
    limits (-90.0 60.0)
           (-90.0 90.0)
           (-90.0 90.0)
  end
  begin
     id 26 
     name rradius
     direction -0.999999 0.00118101 -0.000681858   
     length 3.48381   
     axis 180 30 90   XYZ
    dof rx
    limits (-10.0 170.0)
  end
  begin
     id 27 
     name rwrist
     direction -0.999999 0.000321823 -0.00132288   
     length 1.7419   
     axis 4.65056e-015 -90 -90   XYZ
    dof ry
    limits (-180.0 0.0)
  end
  begin
     id 28
     name rhand
     direction -1 -4.49022e-011 -1.31746e-026   
     length 1.34932   
     axis 8.4065e-015 -90 -90   XYZ
    dof rx rz
    limits (-90.0 90.0)
           (-45.0 45.0)
  end
  begin
     id 29
     name rfingers
     direction -1 -4.49178e-011 -2.63492e-026   
     length 1.08785   
     axis 1.6813e-014 -90 -90   XYZ
    dof rx
    limits (0.0 90.0)
  end
  begin
     id 30
     name rthumb
     direction -0.707107 -6.34713e-011 0.707107   
     length 1.56195   
     axis -90 -45 -2.85299e-015   XYZ
    dof rx rz
    limits (-45.0 45.0)
           (-45.0 45.0)
  end
:hierarchy
  begin
    root lhipjoint rhipjoint lowerback
    lhipjoint lfemur
    lfemur ltibia
    ltibia lfoot
    lfoot ltoes
    rhipjoint rfemur
    rfemur rtibia
    rtibia rfoot
    rfoot rtoes
    lowerback upperback
    upperback thorax
    thorax lowerneck lclavicle rclavicle
    lowerneck upperneck
    upperneck head
    lclavicle lhumerus
    lhumerus lradius
    lradius lwrist
    lwrist lhand lthumb
    lhand lfingers
    rclavicle rhumerus
    rhumerus rradius
    rradius rwrist
    rwrist rhand rthumb
    rhand rfingers
  end

#!OML:ASF X:\für Bonn\!DataBase\2005_08_10_Bjorn_Final\c3d\bjorn.ASF
:FULLY-SPECIFIED
:DEGREES
16
root -28.6634 19.1809 -24.2972 -1436.51 -12.4289 0.964609
lowerback -5.7162 2.27821 1.54843
upperback 8.766 3.10884 -2.025
thorax 12.9395 1.75234 -2.55822
lowerneck -2.13008 -1.32513 0.307361
upperneck 17.9306 -1.89606 0.298929
head 5.75797 -0.888058 -0.0631804
rclavicle -1.87852e-014 -5.56597e-015
rhumerus -25.8037 -1.21665 -95.5506
rradius 48.7383
rwrist -2.2263
rhand -16.4964 17.9207
rfingers 7.12502
rthumb 9.72124 -11.835
lclavicle -1.87852e-014 -5.56597e-015
lhumerus -37.5186 -26.4149 95.8112
lradius 70.2488
lwrist -13.5754
lhand -34.3724 -22.6678
lfingers 7.12502
lthumb -7.53906 7.17779
rfemur -13.2811 -14.3315 16.493
rtibia 33.0829
rfoot -14.5526 26.8036
rtoes 5.53667
lfemur -13.9289 2.95659 -21.1625
ltibia 36.4314
lfoot -21.4749 -0.105329
ltoes -13.2754
17
root -28.6611 19.1785 -24.2974 -1436.48 -12.4564 0.90472
lowerback -5.60408 2.29545 1.60126
upperback 8.73181 3.12768 -2.04258
thorax 12.8357 1.76671 -2.60781
lowerneck -2.1543 -1.33928 0.423686
upperneck 17.8814 -1.91579 0.246975
head 5.74503 -0.893787 -0.0999401
rclavicle -1.10325e-014 -2.38542e-015
rhumerus -25.8251 -1.26196 -95.5286
rradius 48.8491
rwrist -2.18847
rhand -16.625 17.8493
rfingers 7.12502
rthumb 9.59718 -11.9121
lclavicle -1.10325e-014 -2.38542e-015
lhumerus -37.6785 -26.4554 95.8611
lradius 70.3511
lwrist -13.4787
lhand -34.4977 -22.7317
lfingers 7.12502
lthumb -7.65999 7.1096
rfemur -13.3423 -14.4118 16.546
rtibia 33.1476
rfoot -14.5486 26.9252
rtoes 5.5954
lfemur -14.0408 3.13578 -21.2246
ltibia 36.3513
lfoot -21.3213 -1.24752
ltoes -12.5634
18
root -28.6583 19.1746 -24.2971 -1436.43 -12.4732 0.84635
lowerback -5.51949 2.31344 1.654
upperback 8.70106 3.14822 -2.06539
thorax 12.7537 1.78229 -2.66192
lowerneck -2.1723 -1.34749 0.500537
upperneck 17.806 -1.93502 0.263165
head 5.72394 -0.897357 -0.108508
rclavicle 4.24405e-014 -3.97569e-016
rhumerus -25.8363 -1.43294 -95.4904
rradius 48.9639
rwrist -2.14697
rhand -16.733 17.7769
rfingers 7.12502
rthumb 9.49298 -11.9892
lclavicle 4.24405e-014 -3.97569e-016
lhumerus -37.831 -26.5411 95.9172
lradius 70.4398
lwrist -13.3886
lhand -34.6648 -22.7211
lfingers 7.12502
lthumb -7.82123 7.11423
rfemur -13.4386 -14.5072 16.6037
rtibia 33.2287
rfoot -14.56 27.0529
rtoes 5.49681
lfemur -14.1701 3.41227 -21.2884
ltibia 36.2618
lfoot -21.1275 -2.26015
ltoes -12.3934
19
root -28.6544 19.1698 -24.2951 -1436.37 -12.5257 0.805752
lowerback -5.44553 2.33714 1.67844
upperback 8.65583 3.18035 -2.09512
thorax 12.6611 1.8008 -2.70559
lowerneck -2.10537 -1.35693 0.625899
upperneck 17.6647 -1.95388 0.25135
head 5.66687 -0.900194 -0.132875
rclavicle -1.5207e-014 2.5842e-014
rhumerus -25.8473 -1.70802 -95.4595
rradius 48.986
rwrist -2.0268
rhand -16.8454 17.7984
rfingers 7.12502
rthumb 9.38452 -11.9726
lclavicle -1.5207e-014 2.5842e-014
lhumerus -38.005 -26.5942 95.9639
lradius 70.5104
lwrist -13.3344
lhand -34.7744 -22.7322
lfingers 7.12502
lthumb -7.92702 7.09913
rfemur -13.5437 -14.597 16.6316
rtibia 33.3135
rfoot -14.526 27.2323
rtoes 5.74998
lfemur -14.2836 3.65296 -21.3781
ltibia 36.1664
lfoot -20.8995 -3.14589
ltoes -11.4986
20
root -28.651 19.1667 -24.2925 -1436.33 -12.5739 0.743854
lowerback -5.34575 2.37166 1.72531
upperback 8.61923 3.22463 -2.12304
thorax 12.565 1.82724 -2.75868
lowerneck -2.09668 -1.377 0.806182
upperneck 17.5863 -1.98305 0.181011
head 5.63831 -0.908024 -0.186029
rclavicle 1.65985e-014 -4.05521e-014
rhumerus -25.8785 -2.02619 -95.4219
rradius 49.0404
rwrist -1.92137
rhand -16.9616 17.821
rfingers 7.12502
rthumb 9.27238 -11.9551
lclavicle 1.65985e-014 -4.05521e-014
lhumerus -38.1739 -26.7097 96.016
lradius 70.5432
lwrist -13.2964
lhand -34.8577 -22.59
lfingers 7.12502
lthumb -8.00742 7.23834
rfemur -13.626 -14.6569 16.6816
rtibia 33.401
rfoot -14.5327 27.3577
rtoes 5.72191
lfemur -14.3583 3.90542 -21.4382
ltibia 36.0685
lfoot -20.6579 -3.80328
ltoes -10.4982
21
root -28.6465 19.1634 -24.2891 -1436.28 -12.6186 0.703112
lowerback -5.27311 2.38961 1.73533
upperback 8.58947 3.25017 -2.14701
thorax 12.4897 1.84109 -2.78902
lowerneck -2.06061 -1.38496 0.926973
upperneck 17.455 -1.99813 0.159944
head 5.58966 -0.909997 -0.21252
rclavicle 3.48867e-014 7.55382e-015
rhumerus -25.9183 -2.30389 -95.39
rradius 49.1031
rwrist -1.86921
rhand -17.0704 17.8968
rfingers 7.12502
rthumb 9.1674 -11.8839
lclavicle 3.48867e-014 7.55382e-015
lhumerus -38.3215 -26.7589 96.0559
lradius 70.5752
lwrist -13.2919
lhand -34.8895 -22.4411
lfingers 7.12502
lthumb -8.03812 7.38602
rfemur -13.7178 -14.732 16.7076
rtibia 33.4847
rfoot -14.5609 27.4906
rtoes 5.66637
lfemur -14.426 4.13422 -21.5198
ltibia 35.9676
lfoot -20.4556 -4.1949
ltoes -9.99598
22
root -28.6416 19.159 -24.2846 -1436.22 -12.6689 0.61833
lowerback -5.21014 2.42062 1.80154
upperback 8.55485 3.28722 -2.17227
thorax 12.4198 1.86578 -2.85011
lowerneck -2.05025 -1.40274 1.09808
upperneck 17.3619 -2.02481 0.0998123
head 5.55641 -0.916803 -0.2606
rclavicle 7.55382e-015 -2.70347e-014
rhumerus -25.9654 -2.64918 -95.3575
rradius 49.107
rwrist -1.78308
rhand -17.2182 18.023
rfingers 7.12502
rthumb 9.02481 -11.7639
lclavicle 7.55382e-015 -2.70347e-014
lhumerus -38.4738 -26.8458 96.0776
lradius 70.5521
lwrist -13.3009
lhand -34.996 -22.3807
lfingers 7.12502
lthumb -8.14093 7.44246
rfemur -13.806 -14.8296 16.7739
rtibia 33.5642
rfoot -14.5454 27.6495
rtoes 5.67214
lfemur -14.4782 4.34749 -21.5449
ltibia 35.8644
lfoot -20.2419 -4.42195
ltoes -9.62564
23
root -28.6373 19.1546 -24.2765 -1436.15 -12.7164 0.574642
lowerback -5.19485 2.44145 1.80101
upperback 8.52849 3.31737 -2.19308
thorax 12.3836 1.88085 -2.86838
lowerneck -1.99916 -1.41272 1.21569
upperneck 17.2185 -2.04271 0.0848469
head 5.50157 -0.920243 -0.28449
rclavicle -5.10877e-014 1.23246e-014
rhumerus -26.0075 -2.96094 -95.3054
rradius 49.1134
rwrist -1.73251
rhand -17.2948 18.1562
rfingers 7.12502
rthumb 8.95091 -11.6339
lclavicle -5.10877e-014 1.23246e-014
lhumerus -38.6226 -26.9051 96.1146
lradius 70.5087
lwrist -13.2887
lhand -35.0728 -22.3048
lfingers 7.12502
lthumb -8.215 7.51547
rfemur -13.8907 -14.9049 16.7973
rtibia 33.6371
rfoot -14.5221 27.7965
rtoes 5.68173
lfemur -14.5016 4.46528 -21.6027
ltibia 35.7553
lfoot -20.0798 -4.49547
ltoes -9.16875
24
root -28.6321 19.1493 -24.2662 -1436.1 -12.7942 0.528595
lowerback -5.18541 2.47225 1.79736
upperback 8.50602 3.36124 -2.21273
thorax 12.3563 1.90223 -2.88116
lowerneck -1.95883 -1.43135 1.34116
upperneck 17.0883 -2.06857 0.0412539
head 5.45222 -0.928903 -0.319155
rclavicle -2.09718e-014 2.38542e-015
rhumerus -26.0719 -3.30469 -95.2524
rradius 49.0895
rwrist -1.67458
rhand -17.3863 18.3482
rfingers 7.12502
rthumb 8.8626 -11.4457
lclavicle -2.09718e-014 2.38542e-015
lhumerus -38.7534 -26.9507 96.1596
lradius 70.4308
lwrist -13.2643
lhand -35.1291 -22.2976
lfingers 7.12502
lthumb -8.26933 7.5206
rfemur -13.9658 -14.9816 16.8107
rtibia 33.7146
rfoot -14.4835 27.9801
rtoes 5.81307
lfemur -14.483 4.59823 -21.6447
ltibia 35.629
lfoot -19.9173 -4.52118
ltoes -8.59834
25
root -28.627 19.145 -24.2555 -1436.03 -12.8385 0.443319
lowerback -5.1844 2.47474 1.77762
upperback 8.48346 3.36365 -2.18733
thorax 12.3262 1.89938 -2.84223
lowerneck -1.91177 -1.43431 1.37418
upperneck 16.9561 -2.06779 0.00818147
head 5.40231 -0.929708 -0.333682
rclavicle 4.8901e-014 -3.77691e-014
rhumerus -26.1302 -3.59508 -95.1697
rradius 49.0433
rwrist -1.62515
rhand -17.4988 18.5021
rfingers 7.12502
rthumb 8.75401 -11.2963
lclavicle 4.8901e-014 -3.77691e-014
lhumerus -38.8773 -26.9242 96.213
lradius 70.3367
lwrist -13.2083
lhand -35.159 -22.3579
lfingers 7.12502
lthumb -8.29826 7.45908
rfemur -14.0368 -15.0426 16.8738
rtibia 33.788
rfoot -14.4873 28.1221
rtoes 5.85461
lfemur -14.4522 4.62829 -21.6259
ltibia 35.4925
lfoot -19.7948 -4.41327
ltoes -8.46712
26
root -28.6224 19.141 -24.2426 -1435.95 -12.875 0.399071
lowerback -5.21048 2.47875 1.72112
upperback 8.46099 3.37521 -2.19097
thorax 12.3132 1.89941 -2.81195
lowerneck -1.84551 -1.43747 1.41399
upperneck 16.8017 -2.07393 0.0193502
head 5.34271 -0.930863 -0.335575
rclavicle 1.45113e-014 -1.19271e-015
rhumerus -26.1858 -3.90655 -95.126
rradius 48.9659
rwrist -1.56826
rhand -17.6365 18.6061
rfingers 7.12502
rthumb 8.62111 -11.1978
lclavicle 1.45113e-014 -1.19271e-015
lhumerus -38.9958 -26.9362 96.2345
lradius 70.2203
lwrist -13.0724
lhand -35.1645 -22.394
lfingers 7.12502
lthumb -8.30355 7.42282
rfemur -14.1147 -15.153 16.8941
rtibia 33.8627
rfoot -14.5565 28.2681
rtoes 5.56639
lfemur -14.4089 4.58508 -21.6423
ltibia 35.3441
lfoot -19.6743 -4.23558
ltoes -8.3888
27
root -28.618 19.1356 -24.229 -1435.9 -12.8883 0.336356
lowerback -5.2136 2.46921 1.66432
upperback 8.43827 3.36658 -2.1764
thorax 12.2828 1.88853 -2.76576
lowerneck -1.76101 -1.43408 1.46831
upperneck 16.6594 -2.06528 -0.0140243
head 5.28327 -0.926781 -0.352903
rclavicle -2.89232e-014 -1.98785e-015
rhumerus -26.2277 -4.21316 -95.0643
rradius 48.8092
rwrist -1.55698
rhand -17.7914 18.7156
rfingers 7.12502
rthumb 8.47169 -11.0945
lclavicle -2.89232e-014 -1.98785e-015
lhumerus -39.1533 -26.9017 96.2741
lradius 70.1233
lwrist -12.8927
lhand -35.1404 -22.4735
lfingers 7.12502
lthumb -8.28025 7.34427
rfemur -14.1562 -15.2277 16.9283
rtibia 33.9285
rfoot -14.5622 28.3914
rtoes 5.665
lfemur -14.3248 4.55316 -21.6172
ltibia 35.1922
lfoot -19.5767 -4.09208
ltoes -8.11494
